<svg xmlns="http://www.w3.org/2000/svg" viewBox="0 0 100 22.31"><title>SOLARME-Logo-negative-RGB</title><g id="Ebene_2" data-name="Ebene 2"><g id="Ebene_1-2" data-name="Ebene 1"><path id="SOLARME" d="M80.86,22.09h9.61V19.28h-6.4V16.84h5V14.13h-5V12.44h6.26V9.63H80.86Zm-15.66,0h3.2v-7.6l2.3,3.35h1.77l2.22-3.35v7.6h3.19V9.63H74.71l-3.17,4.79L68.39,9.63H65.2Zm-12-6.64v-5h4.58c1.88,0,3,.91,3,2.49s-1.1,2.51-3,2.51Zm-.89,6.64h.89V16.27h4.36l4.06,5.82h1L58.55,16.2a3.17,3.17,0,0,0,3.08-3.28c0-2-1.37-3.29-3.81-3.29H52.28ZM40.42,17.68l3.17-7,3.15,7Zm-2.88,4.41h.93l1.63-3.63h7l1.64,3.63h.93L44,9.56h-.82Zm-10.18,0h8.1v-.82H28.25V9.63h-.89Zm-9.57.22A6.18,6.18,0,0,0,24,15.86a6.2,6.2,0,1,0-12.4,0,6.18,6.18,0,0,0,6.21,6.45m0-.84a5.37,5.37,0,0,1-5.31-5.61,5.31,5.31,0,1,1,10.6,0,5.36,5.36,0,0,1-5.29,5.61m-13.23.84c2.37,0,4.5-1.2,4.5-3.49s-2.14-3.07-4.13-3.64-3.67-1-3.67-2.65c0-1.17,1-2.26,3.3-2.26a6.57,6.57,0,0,1,3.75,1.14v-.94A7,7,0,0,0,4.52,9.42c-2.76,0-4.15,1.42-4.15,3.1,0,2.19,1.77,2.79,4.06,3.45,2,.57,3.72,1,3.72,2.85,0,1.64-1.56,2.65-3.66,2.65A7.29,7.29,0,0,1,0,20v1a7.84,7.84,0,0,0,4.56,1.34" style="fill:#fff"/><path id="Icon" d="M98.31,8.57h0L98.93,8h0L97.66,6.68a3.07,3.07,0,0,0,.58-1.41H100V4.38H98.24A3,3,0,0,0,97.66,3L98.93,1.7l-.62-.63L97,2.34a3,3,0,0,0-1.41-.58V0h-.88V1.75a3.15,3.15,0,0,0-1.41.59L92.06,1.07h0l-.63.62h0L92.7,3a3,3,0,0,0-.58,1.41H90.36v.88h1.76a3,3,0,0,0,.58,1.41L91.43,8l.62.63,1.28-1.27a3,3,0,0,0,1.41.58V9.64h.88V7.88A3,3,0,0,0,97,7.3ZM93.86,6.14a1.87,1.87,0,1,1,2.64,0,1.86,1.86,0,0,1-2.64,0" style="fill:#fdc307"/></g></g></svg>